#!OML:ASF F:\VICON\USERDATA\INSTALL\rory3\rory3.ASF
:FULLY-SPECIFIED
:DEGREES
111
root 14.6696 17.8819 -9.71356 4.43134 -44.2728 -2.68868
lowerback 11.1574 0.95623 3.34966
upperback 0.312413 1.71062 0.426709
thorax -5.85074 0.746679 -1.71217
lowerneck -19.4753 -5.07227 -11.1657
upperneck 25.0027 -6.34598 9.10469
head 12.137 -2.8127 4.27737
rclavicle 7.63582e-014 2.18663e-015
rhumerus -34.3659 -13.1323 -81.5026
rradius 27.4611
rwrist 13.636
rhand -10.1416 9.90595
rfingers 7.12502
rthumb 15.8473 -19.4655
lclavicle 7.63582e-014 2.18663e-015
lhumerus -37.225 4.93889 82.4147
lradius 31.3552
lwrist -9.52757
lhand -13.1084 26.1246
lfingers 7.12502
lthumb 12.9887 55.7003
rfemur -1.65916 1.2362 28.3073
rtibia 21.4003
rfoot -18.5534 2.00855
rtoes 9.17427
lfemur -28.6525 -0.598195 -18.8472
ltibia 36.8773
lfoot -12.8634 1.49258
ltoes -13.9826
112
root 14.6304 17.8812 -9.67695 4.3847 -44.3779 -2.5953
lowerback 11.1497 1.0231 3.33717
upperback 0.3712 1.79266 0.37811
thorax -5.77875 0.788534 -1.76785
lowerneck -19.4018 -5.07775 -11.1614
upperneck 24.8224 -6.35437 9.12752
head 12.0536 -2.81293 4.2793
rclavicle 4.33599e-014 -7.55382e-015
rhumerus -34.3218 -13.1594 -81.5013
rradius 27.3781
rwrist 13.6343
rhand -10.3672 9.99447
rfingers 7.12502
rthumb 15.63 -19.3941
lclavicle 4.33599e-014 -7.55382e-015
lhumerus -37.2894 5.00027 82.3557
lradius 31.2867
lwrist -9.78854
lhand -12.7896 26.3707
lfingers 7.12502
lthumb 13.296 55.9266
rfemur -1.3346 1.34638 28.2484
rtibia 21.1029
rfoot -18.4817 2.07637
rtoes 9.64538
lfemur -28.6968 -0.677386 -18.9063
ltibia 35.2936
lfoot -12.65 1.42017
ltoes -12.7216
113
root 14.5884 17.8772 -9.63466 4.26699 -44.5255 -2.50831
lowerback 11.3328 1.03727 3.22116
upperback 0.296109 1.81006 0.444931
thorax -5.96576 0.796725 -1.64121
lowerneck -19.0835 -5.00829 -11.2496
upperneck 24.7436 -6.21392 8.98109
head 11.9398 -2.78443 4.26126
rclavicle 1.0553e-013 -2.48481e-014
rhumerus -34.5462 -12.7528 -81.4281
rradius 27.3825
rwrist 13.4127
rhand -10.3688 9.97015
rfingers 7.12502
rthumb 15.6285 -19.4185
lclavicle 1.0553e-013 -2.48481e-014
lhumerus -37.6472 5.29756 82.3337
lradius 31.1276
lwrist -10.0004
lhand -12.9351 26.1889
lfingers 7.12502
lthumb 13.1558 55.7538
rfemur -0.890289 1.36883 28.1661
rtibia 20.7829
rfoot -18.4032 2.33426
rtoes 9.95754
lfemur -28.6342 -0.86981 -18.936
ltibia 33.7162
lfoot -12.7181 1.52916
ltoes -13.3697
114
root 14.5477 17.8775 -9.59289 4.32381 -44.6008 -2.56315
lowerback 11.3227 1.10787 3.23958
upperback 0.347831 1.90907 0.532915
thorax -5.90288 0.847366 -1.57386
lowerneck -19.1623 -5.02657 -11.2995
upperneck 24.8126 -6.18484 8.86609
head 11.9767 -2.78846 4.23161
rclavicle -8.78877e-014 1.98785e-015
rhumerus -34.6031 -12.5328 -81.3368
rradius 27.5427
rwrist 13.1433
rhand -10.397 9.80978
rfingers 7.12502
rthumb 15.6013 -19.581
lclavicle -8.78877e-014 1.98785e-015
lhumerus -37.6977 5.26554 82.5353
lradius 30.9092
lwrist -10.1177
lhand -13.4399 26.0294
lfingers 7.12502
lthumb 12.6691 55.6251
rfemur -0.550869 1.38558 28.2042
rtibia 20.4985
rfoot -18.3371 2.45378
rtoes 10.1397
lfemur -28.6858 -1.11542 -18.8462
ltibia 32.1389
lfoot -12.742 1.57278
ltoes -14.2955
115
root 14.5072 17.8745 -9.55397 4.45938 -44.6556 -2.63552
lowerback 11.2686 1.25863 3.08518
upperback 0.414692 2.09579 0.721275
thorax -5.80534 0.94776 -1.3164
lowerneck -19.344 -5.15824 -11.4657
upperneck 24.8461 -6.28496 8.82211
head 12.044 -2.84911 4.22544
rclavicle -5.0864e-014 -1.03368e-014
rhumerus -34.5224 -12.4531 -81.0526
rradius 27.6253
rwrist 12.9518
rhand -10.4673 9.6163
rfingers 7.12502
rthumb 15.5336 -19.7798
lclavicle -5.0864e-014 -1.03368e-014
lhumerus -37.627 5.35969 82.8749
lradius 30.5607
lwrist -10.6747
lhand -13.9948 25.769
lfingers 7.12502
lthumb 12.1341 55.3971
rfemur -0.287665 1.54628 28.2879
rtibia 20.2323
rfoot -18.2852 2.35683
rtoes 10.1275
lfemur -28.8253 -1.29536 -18.702
ltibia 30.5835
lfoot -12.8558 1.17816
ltoes -14.5138
116
root 14.4638 17.8646 -9.51281 4.62169 -44.7058 -2.70638
lowerback 11.156 1.29737 3.12289
upperback 0.468203 2.14552 0.717384
thorax -5.682 0.973791 -1.34517
lowerneck -19.4059 -5.21862 -11.4824
upperneck 24.7622 -6.3711 8.88948
head 12.0377 -2.8779 4.23685
rclavicle -2.21396e-014 -1.35174e-014
rhumerus -34.3901 -12.6465 -81.056
rradius 27.575
rwrist 13.2287
rhand -10.3551 9.60614
rfingers 7.12502
rthumb 15.6417 -19.7815
lclavicle -2.21396e-014 -1.35174e-014
lhumerus -37.6049 5.4768 82.8074
lradius 30.3517
lwrist -11.0206
lhand -14.181 25.8521
lfingers 7.12502
lthumb 11.9546 55.4908
rfemur -0.0258587 1.74309 28.3849
rtibia 19.9254
rfoot -18.2468 2.15699
rtoes 9.88447
lfemur -29.0063 -1.59639 -18.5
ltibia 29.1001
lfoot -13.1185 0.85395
ltoes -16.0893
117
root 14.4219 17.8549 -9.47062 4.88237 -44.7453 -2.90317
lowerback 11.0282 1.22009 3.53334
upperback 0.501529 2.07701 0.521447
thorax -5.55647 0.930045 -1.76599
lowerneck -19.3965 -5.13621 -11.2298
upperneck 24.6346 -6.36151 9.00577
head 11.9789 -2.83451 4.23716
rclavicle 7.70291e-015 1.39149e-015
rhumerus -34.2918 -12.866 -81.4211
rradius 27.515
rwrist 13.5732
rhand -10.3769 9.69753
rfingers 7.12502
rthumb 15.6206 -19.6918
lclavicle 7.70291e-015 1.39149e-015
lhumerus -37.6377 5.32629 82.4544
lradius 30.2516
lwrist -10.8609
lhand -14.1224 26.1099
lfingers 7.12502
lthumb 12.0111 55.7453
rfemur 0.197803 1.96848 28.5919
rtibia 19.6511
rfoot -18.249 1.88616
rtoes 9.4621
lfemur -29.2148 -1.92144 -18.2134
ltibia 27.6756
lfoot -13.2085 0.745862
ltoes -18.5685
